<svg width="106" height="95" viewBox="0 0 106 95" fill="none" xmlns="http://www.w3.org/2000/svg">
<mask id="mask0_44_109" style="mask-type:luminance" maskUnits="userSpaceOnUse" x="0" y="0" width="106" height="95">
<path d="M99.5053 0H5.90349C2.7673 0 0.224915 2.54238 0.224915 5.67857V88.9643C0.224915 92.1005 2.7673 94.6429 5.90349 94.6429H99.5053C102.641 94.6429 105.184 92.1005 105.184 88.9643V5.67857C105.184 2.54238 102.641 0 99.5053 0Z" fill="white"/>
</mask>
<g mask="url(#mask0_44_109)">
<path d="M99.5053 0H5.90349C2.7673 0 0.224915 2.54238 0.224915 5.67857V88.9643C0.224915 92.1005 2.7673 94.6429 5.90349 94.6429H99.5053C102.641 94.6429 105.184 92.1005 105.184 88.9643V5.67857C105.184 2.54238 102.641 0 99.5053 0Z" fill="white"/>
<mask id="mask1_44_109" style="mask-type:luminance" maskUnits="userSpaceOnUse" x="4" y="-1" width="97" height="97">
<path d="M100.783 -0.473633H4.95703V95.3523H100.783V-0.473633Z" fill="white"/>
</mask>
<g mask="url(#mask1_44_109)">
<path d="M5.25769 94.9541L100.374 -0.162109" stroke="#FAFAFA" stroke-opacity="0.88" stroke-width="0.473214"/>
<path d="M5.59229 -0.162109L100.708 94.9541" stroke="#FAFAFA" stroke-opacity="0.88" stroke-width="0.473214"/>
<path d="M52.9883 94.8792C79.1232 94.8792 100.31 73.6927 100.31 47.5578C100.31 21.4229 79.1232 0.236328 52.9883 0.236328C26.8534 0.236328 5.66687 21.4229 5.66687 47.5578C5.66687 73.6927 26.8534 94.8792 52.9883 94.8792Z" stroke="#FAFAFA" stroke-opacity="0.88" stroke-width="0.473214"/>
</g>
<path d="M100.546 -0.236328H5.19366V95.1164H100.546V-0.236328Z" stroke="#FAFAFA" stroke-opacity="0.88" stroke-width="0.473214"/>
<path d="M33.1133 99.8485V-5.20508" stroke="#FAFAFA" stroke-opacity="0.88" stroke-width="0.473214"/>
<path d="M52.9883 99.8485V-5.20508" stroke="#FAFAFA" stroke-opacity="0.88" stroke-width="0.473214"/>
<path d="M72.8633 99.8485V-5.20508" stroke="#FAFAFA" stroke-opacity="0.88" stroke-width="0.473214"/>
<path d="M105.279 67.4326H0.224915" stroke="#FAFAFA" stroke-opacity="0.88" stroke-width="0.473214"/>
<path d="M105.279 47.5576H0.224915" stroke="#FAFAFA" stroke-opacity="0.88" stroke-width="0.473214"/>
<path d="M105.279 27.6826H0.224915" stroke="#FAFAFA" stroke-opacity="0.88" stroke-width="0.473214"/>
<path d="M52.7517 67.4326C63.7284 67.4326 72.6267 58.5343 72.6267 47.5576C72.6267 36.581 63.7284 27.6826 52.7517 27.6826C41.7751 27.6826 32.8767 36.581 32.8767 47.5576C32.8767 58.5343 41.7751 67.4326 52.7517 67.4326Z" stroke="#FAFAFA" stroke-opacity="0.88" stroke-width="0.473214"/>
<path d="M91.7715 15.0245C92.2651 14.5342 92.2684 13.7364 91.7782 13.2425C91.2879 12.7486 90.4896 12.7459 89.9956 13.236C88.3516 14.8685 86.8922 15.4717 85.5975 15.4492C84.2881 15.4265 82.8524 14.7598 81.2747 13.2266C80.7783 12.744 79.9852 12.7524 79.4992 13.2456C79.0132 13.7387 79.0161 14.5317 79.5054 15.0213C81.2331 16.7489 81.8028 18.2314 81.7531 19.5072C81.702 20.8113 80.9931 22.2117 79.4978 23.7343C79.0203 24.2204 79.0156 24.9981 79.4874 25.4898C79.9592 25.9815 80.7367 26.009 81.2421 25.5519C82.9168 24.0372 84.4107 23.3908 85.7404 23.378C87.0484 23.3654 88.4595 23.9637 89.9894 25.505C90.4764 25.9959 91.268 26.0023 91.7635 25.5195C92.2585 25.0366 92.2722 24.2449 91.7938 23.7455C90.1446 22.0247 89.5394 20.5285 89.564 19.2303C89.5891 17.9281 90.253 16.5314 91.7715 15.0245Z" fill="url(#paint0_linear_44_109)"/>
<path d="M14.3911 61.1522V59.5225H16.2726C16.6524 59.5225 16.9704 59.4472 17.2266 59.2972C17.4916 59.1472 17.6903 58.9395 17.8228 58.6745C17.9642 58.4095 18.0348 58.1047 18.0348 57.7602C18.0348 57.4157 17.9642 57.111 17.8228 56.846C17.6903 56.581 17.4916 56.378 17.2266 56.2365C16.9704 56.0865 16.6524 56.0112 16.2726 56.0112H14.3911V54.3815H16.1136C16.9262 54.3815 17.6152 54.514 18.1806 54.779C18.7547 55.044 19.192 55.424 19.4923 55.9185C19.7927 56.4045 19.9428 56.9827 19.9428 57.6542V57.8662C19.9428 58.5377 19.7927 59.1207 19.4923 59.6152C19.192 60.1012 18.7547 60.4807 18.1806 60.7547C17.6152 61.0197 16.9262 61.1522 16.1136 61.1522H14.3911ZM12.7746 64.1202V54.3815H14.6561V64.1202H12.7746ZM24.4662 64.372C23.8479 64.372 23.3047 64.266 22.8365 64.054C22.3772 63.842 21.9929 63.5595 21.6837 63.206C21.3834 62.844 21.1537 62.4417 20.9947 62.0002C20.8446 61.5587 20.7695 61.1082 20.7695 60.6487V60.397C20.7695 59.92 20.8446 59.4605 20.9947 59.019C21.1537 58.5685 21.3834 58.171 21.6837 57.8265C21.9929 57.473 22.3727 57.1947 22.8232 56.9917C23.2737 56.7797 23.7949 56.6737 24.3867 56.6737C25.1641 56.6737 25.8133 56.846 26.3345 57.1905C26.8645 57.526 27.262 57.9722 27.527 58.5287C27.792 59.0762 27.9245 59.6682 27.9245 60.3042V60.9667H21.5512V59.8405H26.7717L26.202 60.397C26.202 59.9375 26.1357 59.5447 26.0032 59.2177C25.8707 58.8907 25.6676 58.639 25.3937 58.4625C25.1287 58.286 24.7931 58.1975 24.3867 58.1975C23.9804 58.1975 23.6359 58.2902 23.3532 58.4757C23.0706 58.6612 22.8542 58.9305 22.704 59.284C22.5627 59.6285 22.492 60.0435 22.492 60.5295C22.492 60.98 22.5627 61.3817 22.704 61.7352C22.8453 62.0797 23.0617 62.3537 23.3532 62.5567C23.6447 62.7512 24.0157 62.8482 24.4662 62.8482C24.9167 62.8482 25.2833 62.7597 25.566 62.5832C25.8487 62.3977 26.0297 62.1725 26.1092 61.9075H27.8052C27.6992 62.402 27.4961 62.835 27.1957 63.206C26.8954 63.577 26.5112 63.8642 26.043 64.0672C25.5837 64.2702 25.0581 64.372 24.4662 64.372ZM34.498 64.1202L32.0865 60.7547H31.0133L34.074 56.9255H35.9953L33.173 60.4632L33.2128 59.5357L36.5783 64.1202H34.498ZM29.463 64.1202V54.4477H31.3048V64.1202H29.463ZM37.9853 64.1202V56.9255H39.827V64.1202H37.9853ZM36.9783 58.3035V56.9255H39.827V58.3035H36.9783ZM38.661 56.0642C38.2988 56.0642 38.0294 55.9715 37.8528 55.786C37.6849 55.5915 37.601 55.353 37.601 55.0705C37.601 54.77 37.6849 54.5272 37.8528 54.3417C38.0294 54.1562 38.2988 54.0635 38.661 54.0635C39.0232 54.0635 39.2882 54.1562 39.456 54.3417C39.6238 54.5272 39.7078 54.77 39.7078 55.0705C39.7078 55.353 39.6238 55.5915 39.456 55.786C39.2882 55.9715 39.0232 56.0642 38.661 56.0642ZM41.9496 64.1202V56.9255H43.4071V60.0127H43.2746C43.2746 59.2797 43.3718 58.6702 43.5661 58.1842C43.7604 57.6897 44.0475 57.3187 44.4273 57.0712C44.816 56.8237 45.2974 56.7002 45.8716 56.7002H45.9511C46.8079 56.7002 47.4572 56.9785 47.8989 57.535C48.3404 58.0825 48.5614 58.904 48.5614 59.9995V64.1202H46.7196V59.8405C46.7196 59.399 46.5915 59.0412 46.3353 58.7672C46.088 58.4932 45.7435 58.3565 45.3018 58.3565C44.8513 58.3565 44.4848 58.498 44.2021 58.7805C43.9283 59.0545 43.7913 59.4255 43.7913 59.8935V64.1202H41.9496ZM53.1516 64.3455C52.1626 64.3455 51.3851 64.1377 50.8196 63.7227C50.2631 63.2987 49.9716 62.7157 49.9451 61.9737H51.6013C51.6278 62.2212 51.7651 62.4465 52.0121 62.6495C52.2596 62.8525 52.6481 62.9542 53.1781 62.9542C53.6201 62.9542 53.9688 62.8747 54.2248 62.7157C54.4898 62.5567 54.6223 62.3405 54.6223 62.0665C54.6223 61.828 54.5211 61.6382 54.3176 61.4967C54.1236 61.3552 53.7876 61.2625 53.3106 61.2185L52.6746 61.1522C51.8711 61.0637 51.2526 60.8342 50.8196 60.4632C50.3871 60.0922 50.1703 59.5977 50.1703 58.9792C50.1703 58.4847 50.2943 58.0692 50.5413 57.7337C50.7888 57.3982 51.1291 57.1465 51.5616 56.9785C52.0036 56.802 52.5071 56.7135 53.0721 56.7135C53.9556 56.7135 54.6711 56.908 55.2186 57.2965C55.7666 57.685 56.0533 58.2547 56.0798 59.0057H54.4236C54.4061 58.7582 54.2826 58.5462 54.0526 58.3697C53.8231 58.1932 53.4918 58.1047 53.0588 58.1047C52.6703 58.1047 52.3698 58.18 52.1578 58.33C51.9458 58.48 51.8398 58.6745 51.8398 58.913C51.8398 59.1425 51.9241 59.3195 52.0916 59.443C52.2686 59.5665 52.5511 59.6507 52.9396 59.6947L53.5756 59.761C54.4236 59.8495 55.0861 60.0832 55.5631 60.4632C56.0491 60.8432 56.2918 61.3552 56.2918 62.0002C56.2918 62.4772 56.1593 62.8922 55.8943 63.2457C55.6383 63.5902 55.2763 63.8595 54.8078 64.054C54.3398 64.2485 53.7876 64.3455 53.1516 64.3455ZM61.2715 64.372C60.6355 64.372 60.0747 64.2702 59.5887 64.0672C59.1032 63.8642 58.6924 63.5902 58.3565 63.2457C58.0209 62.8922 57.7649 62.4947 57.588 62.0532C57.4204 61.6117 57.3362 61.1522 57.3362 60.6752V60.397C57.3362 59.9025 57.4247 59.434 57.6012 58.9925C57.7867 58.542 58.0474 58.1445 58.383 57.8C58.7275 57.4465 59.1429 57.173 59.6285 56.9785C60.1144 56.7755 60.662 56.6737 61.2715 56.6737C61.881 56.6737 62.4289 56.7755 62.9145 56.9785C63.4004 57.173 63.8112 57.4465 64.1467 57.8C64.4912 58.1445 64.7519 58.542 64.9285 58.9925C65.1054 59.434 65.1935 59.9025 65.1935 60.397V60.6752C65.1935 61.1522 65.1054 61.6117 64.9285 62.0532C64.7609 62.4947 64.5092 62.8922 64.1732 63.2457C63.8377 63.5902 63.4269 63.8642 62.941 64.0672C62.4554 64.2702 61.8989 64.372 61.2715 64.372ZM61.2715 62.7952C61.722 62.7952 62.102 62.6982 62.411 62.5037C62.7204 62.3007 62.9542 62.031 63.1132 61.6955C63.2722 61.351 63.3517 60.9625 63.3517 60.5295C63.3517 60.088 63.2679 59.699 63.1 59.3635C62.941 59.019 62.7025 58.7497 62.3845 58.5552C62.0755 58.3522 61.7044 58.2505 61.2715 58.2505C60.8389 58.2505 60.4632 58.3522 60.1452 58.5552C59.8362 58.7497 59.5977 59.019 59.4297 59.3635C59.2622 59.699 59.178 60.088 59.178 60.5295C59.178 60.9625 59.2575 61.351 59.4165 61.6955C59.5844 62.031 59.8229 62.3007 60.132 62.5037C60.4414 62.6982 60.821 62.7952 61.2715 62.7952ZM66.8062 64.1202V56.9255H68.2637V60.0127H68.1312C68.1312 59.2797 68.2287 58.6702 68.4227 58.1842C68.6172 57.6897 68.9044 57.3187 69.2839 57.0712C69.6729 56.8237 70.1542 56.7002 70.7282 56.7002H70.8077C71.6647 56.7002 72.3139 56.9785 72.7554 57.535C73.1974 58.0825 73.4179 58.904 73.4179 59.9995V64.1202H71.5762V59.8405C71.5762 59.399 71.4484 59.0412 71.1919 58.7672C70.9449 58.4932 70.6004 58.3565 70.1584 58.3565C69.7079 58.3565 69.3417 58.498 69.0587 58.7805C68.7852 59.0545 68.6479 59.4255 68.6479 59.8935V64.1202H66.8062ZM11.8206 79.2631L15.1198 69.5906H18.1938L21.5858 79.2631H19.6513L16.7761 70.8758L17.4518 71.1673H15.7956L16.4846 70.8758L13.7021 79.2631H11.8206ZM14.1261 76.6926L14.7223 75.1026H18.6443L19.2273 76.6926H14.1261ZM25.9666 79.5148C25.3394 79.5148 24.7962 79.4088 24.3368 79.1968C23.8863 78.9848 23.5065 78.7023 23.1973 78.3488C22.897 77.9953 22.6717 77.5978 22.5216 77.1563C22.3714 76.7148 22.2963 76.2643 22.2963 75.8048V75.5531C22.2963 75.0671 22.3714 74.6033 22.5216 74.1618C22.6806 73.7113 22.9147 73.3138 23.2238 72.9693C23.533 72.6158 23.9128 72.3376 24.3633 72.1346C24.8227 71.9226 25.3527 71.8166 25.9533 71.8166C26.5805 71.8166 27.1414 71.9401 27.6361 72.1876C28.1307 72.4261 28.5238 72.7616 28.8153 73.1946C29.1157 73.6276 29.2835 74.1311 29.3188 74.7051H27.5301C27.4859 74.3341 27.3269 74.0251 27.0531 73.7776C26.7881 73.5301 26.4215 73.4066 25.9533 73.4066C25.547 73.4066 25.2069 73.5036 24.9331 73.6981C24.6681 73.8926 24.4693 74.1618 24.3368 74.5063C24.2043 74.8418 24.1381 75.2308 24.1381 75.6723C24.1381 76.0963 24.1999 76.4806 24.3236 76.8251C24.4561 77.1696 24.6548 77.4388 24.9198 77.6333C25.1937 77.8278 25.5426 77.9248 25.9666 77.9248C26.2846 77.9248 26.5584 77.8676 26.7881 77.7526C27.0177 77.6376 27.1988 77.4786 27.3313 77.2756C27.4727 77.0726 27.561 76.8426 27.5963 76.5866H29.3851C29.3497 77.1696 29.1775 77.6821 28.8683 78.1236C28.568 78.5566 28.1661 78.8963 27.6626 79.1438C27.1679 79.3913 26.6026 79.5148 25.9666 79.5148ZM35.2197 79.2631V77.1298H34.915V74.7581C34.915 74.3431 34.8134 74.0336 34.6102 73.8306C34.4071 73.6276 34.0935 73.5258 33.6695 73.5258C33.4487 73.5258 33.1837 73.5301 32.8745 73.5391C32.5653 73.5481 32.2517 73.5613 31.9337 73.5788C31.6246 73.5878 31.3463 73.6011 31.099 73.6186V72.0551C31.3022 72.0376 31.5318 72.0196 31.788 72.0021C32.0442 71.9846 32.3047 71.9756 32.5697 71.9756C32.8436 71.9666 33.0997 71.9623 33.3382 71.9623C34.0802 71.9623 34.6942 72.0593 35.18 72.2538C35.6747 72.4483 36.0457 72.7531 36.293 73.1681C36.5492 73.5831 36.6772 74.1263 36.6772 74.7978V79.2631H35.2197ZM32.901 79.4486C32.3798 79.4486 31.9205 79.3558 31.523 79.1703C31.1343 78.9848 30.8296 78.7198 30.6087 78.3753C30.3967 78.0308 30.2907 77.6158 30.2907 77.1298C30.2907 76.5998 30.4188 76.1668 30.675 75.8313C30.94 75.4958 31.3066 75.2441 31.7747 75.0761C32.2517 74.9081 32.8082 74.8243 33.4442 74.8243H35.1137V75.9241H33.4177C32.9937 75.9241 32.6669 76.0301 32.4372 76.2421C32.2164 76.4451 32.106 76.7101 32.106 77.0371C32.106 77.3641 32.2164 77.6291 32.4372 77.8321C32.6669 78.0351 32.9937 78.1368 33.4177 78.1368C33.6739 78.1368 33.908 78.0928 34.12 78.0043C34.3408 77.9073 34.5219 77.7483 34.6632 77.5273C34.8134 77.2978 34.8973 76.9883 34.915 76.5998L35.3655 77.1166C35.3213 77.6201 35.1977 78.0441 34.9945 78.3886C34.8002 78.7331 34.5263 78.9981 34.173 79.1836C33.8285 79.3601 33.4045 79.4486 32.901 79.4486ZM41.6313 79.5016C41.1278 79.5016 40.6641 79.4088 40.2401 79.2233C39.8161 79.0378 39.4495 78.7771 39.1403 78.4416C38.8311 78.1061 38.5926 77.7171 38.4248 77.2756C38.257 76.8251 38.1731 76.3391 38.1731 75.8181V75.5398C38.1731 75.0273 38.2526 74.5461 38.4116 74.0956C38.5794 73.6451 38.8091 73.2518 39.1006 72.9163C39.4009 72.5808 39.7586 72.3201 40.1738 72.1346C40.5978 71.9401 41.066 71.8431 41.5783 71.8431C42.1436 71.8431 42.6383 71.9666 43.0623 72.2141C43.4951 72.4526 43.8396 72.8146 44.0958 73.3006C44.352 73.7866 44.4933 74.3961 44.5198 75.1291L43.9766 74.4931V69.5906H45.8183V79.2631H44.3608V76.2023H44.6788C44.6523 76.9353 44.5021 77.5496 44.2283 78.0441C43.9545 78.5301 43.5923 78.8963 43.1418 79.1438C42.7001 79.3823 42.1966 79.5016 41.6313 79.5016ZM42.0421 77.9513C42.4042 77.9513 42.7355 77.8718 43.0358 77.7128C43.3361 77.5448 43.5746 77.3063 43.7513 76.9973C43.9368 76.6793 44.0296 76.3083 44.0296 75.8843V75.3543C44.0296 74.9303 43.9368 74.5768 43.7513 74.2943C43.5658 74.0028 43.3229 73.7818 43.0226 73.6318C42.7222 73.4728 42.3954 73.3933 42.0421 73.3933C41.6446 73.3933 41.2912 73.4903 40.9821 73.6848C40.6817 73.8703 40.4432 74.1353 40.2666 74.4798C40.0987 74.8243 40.0148 75.2261 40.0148 75.6856C40.0148 76.1451 40.1031 76.5468 40.2798 76.8913C40.4565 77.2268 40.695 77.4876 40.9953 77.6731C41.3045 77.8586 41.6534 77.9513 42.0421 77.9513ZM51.1343 79.5148C50.5162 79.5148 49.973 79.4088 49.5045 79.1968C49.0455 78.9848 48.6612 78.7023 48.3518 78.3488C48.0517 77.9868 47.8218 77.5846 47.6628 77.1431C47.5128 76.7016 47.4377 76.2511 47.4377 75.7916V75.5398C47.4377 75.0628 47.5128 74.6033 47.6628 74.1618C47.8218 73.7113 48.0517 73.3138 48.3518 72.9693C48.6612 72.6158 49.0408 72.3376 49.4913 72.1346C49.9418 71.9226 50.4632 71.8166 51.0548 71.8166C51.8323 71.8166 52.4815 71.9888 53.0025 72.3333C53.5325 72.6688 53.93 73.1151 54.195 73.6716C54.46 74.2191 54.5925 74.8111 54.5925 75.4471V76.1096H48.2193V74.9833H53.4398L52.87 75.5398C52.87 75.0803 52.8038 74.6876 52.6713 74.3606C52.5388 74.0336 52.3358 73.7818 52.0618 73.6053C51.7968 73.4288 51.4613 73.3403 51.0548 73.3403C50.6487 73.3403 50.3042 73.4331 50.0213 73.6186C49.7388 73.8041 49.5225 74.0733 49.372 74.4268C49.231 74.7713 49.16 75.1863 49.16 75.6723C49.16 76.1228 49.231 76.5246 49.372 76.8781C49.5135 77.2226 49.7298 77.4966 50.0213 77.6996C50.3128 77.8941 50.6838 77.9911 51.1343 77.9911C51.5848 77.9911 51.9515 77.9026 52.234 77.7261C52.517 77.5406 52.6978 77.3153 52.7773 77.0503H54.4733C54.3673 77.5448 54.1643 77.9778 53.8638 78.3488C53.5637 78.7198 53.1795 79.0071 52.711 79.2101C52.252 79.4131 51.7263 79.5148 51.1343 79.5148ZM56.1314 79.2631V72.0683H57.5889V75.1556H57.4564C57.4564 74.4311 57.5492 73.8263 57.7347 73.3403C57.9202 72.8458 58.1937 72.4748 58.5562 72.2273C58.9272 71.9713 59.3862 71.8431 59.9342 71.8431H60.0137C60.5702 71.8431 61.0292 71.9713 61.3917 72.2273C61.7627 72.4748 62.0362 72.8458 62.2132 73.3403C62.3987 73.8263 62.4914 74.4311 62.4914 75.1556H62.0277C62.0277 74.4311 62.1204 73.8263 62.3059 73.3403C62.4999 72.8458 62.7782 72.4748 63.1407 72.2273C63.5117 71.9713 63.9707 71.8431 64.5187 71.8431H64.5982C65.1547 71.8431 65.6184 71.9713 65.9894 72.2273C66.3604 72.4748 66.6387 72.8458 66.8242 73.3403C67.0182 73.8263 67.1157 74.4311 67.1157 75.1556V79.2631H65.2739V74.9833C65.2739 74.5328 65.1589 74.1751 64.9294 73.9101C64.6994 73.6361 64.3729 73.4993 63.9489 73.4993C63.5249 73.4993 63.1847 73.6408 62.9287 73.9233C62.6722 74.1973 62.5444 74.5683 62.5444 75.0363V79.2631H60.7027V74.9833C60.7027 74.5328 60.5877 74.1751 60.3582 73.9101C60.1282 73.6361 59.8017 73.4993 59.3777 73.4993C58.9537 73.4993 58.6134 73.6408 58.3574 73.9233C58.1009 74.1973 57.9732 74.5683 57.9732 75.0363V79.2631H56.1314ZM68.8197 82.0986V80.5218H70.1712C70.4277 80.5218 70.6397 80.4863 70.8072 80.4158C70.9842 80.3538 71.1299 80.2478 71.2444 80.0978C71.3594 79.9563 71.4479 79.7576 71.5095 79.5016L73.444 72.0683H75.2062L73.0729 79.8991C72.9319 80.4381 72.7332 80.8663 72.4767 81.1843C72.2207 81.5113 71.8894 81.7451 71.4829 81.8866C71.0854 82.0281 70.5909 82.0986 69.999 82.0986H68.8197ZM71.0589 79.1041V77.6466H72.5959V79.1041H71.0589ZM70.4362 79.1041L68.1042 72.0683H69.9592L72.172 79.1041H70.4362Z" fill="#05060F"/>
</g>
<defs>
<linearGradient id="paint0_linear_44_109" x1="98.0871" y1="20.9741" x2="71.6817" y2="20.9741" gradientUnits="userSpaceOnUse">
<stop stop-color="#9867FF"/>
<stop offset="0.339421" stop-color="#59A8FF"/>
<stop offset="0.579976" stop-color="#25E297"/>
<stop offset="1" stop-color="#F3E557"/>
</linearGradient>
</defs>
</svg>
