<svg width="20" height="21" viewBox="0 0 20 21" fill="none" xmlns="http://www.w3.org/2000/svg">
<path d="M7.74166 13.7782L10.975 10.5449L7.74166 7.31157C7.6644 7.23448 7.6031 7.14291 7.56128 7.0421C7.51945 6.94129 7.49792 6.83322 7.49792 6.72407C7.49792 6.61493 7.51945 6.50686 7.56128 6.40605C7.6031 6.30523 7.6644 6.21366 7.74166 6.13657C8.06666 5.81157 8.59166 5.81157 8.91666 6.13657L12.7417 9.96157C13.0667 10.2866 13.0667 10.8116 12.7417 11.1366L8.91666 14.9616C8.59166 15.2866 8.06666 15.2866 7.74166 14.9616C7.425 14.6366 7.41666 14.1032 7.74166 13.7782Z" fill="white"/>
</svg>
