<svg width="49" height="49" viewBox="0 0 49 49" fill="none" xmlns="http://www.w3.org/2000/svg">
<path d="M24.499 0.000976562C37.9734 0.000986943 48.998 11.0871 48.998 24.6367C48.998 36.8178 40.151 46.946 28.582 48.999L28.4434 48.8867C28.4895 48.8778 28.5359 48.8706 28.582 48.8613V31.4795H34.0264L35.1152 24.6357H28.582V19.8457C28.5821 17.9297 29.2627 16.4239 32.2568 16.4238H35.3877V10.1279C33.6184 9.8542 31.7127 9.58107 29.9434 9.58105C24.3631 9.58105 20.4162 13.0024 20.416 19.1611V24.6357H14.291V31.4795H20.416V48.8613C20.4618 48.8705 20.5079 48.8778 20.5537 48.8867L20.416 48.999C8.84704 46.946 0 36.8178 0 24.6367C7.03979e-05 11.087 11.0246 0.000976562 24.499 0.000976562Z" fill="white"/>
</svg>
