<svg width="32" height="33" viewBox="0 0 32 33" fill="none" xmlns="http://www.w3.org/2000/svg">
<g clip-path="url(#clip0_4_29522)">
<path d="M30 20.5H16V22.5H30V20.5Z" fill="white"/>
<path d="M30 24.5H16V26.5H30V24.5Z" fill="white"/>
<path d="M23 28.5H16V30.5H23V28.5Z" fill="white"/>
<path d="M14 26.5H4V6.5H11.17L14.59 9.91L15.17 10.5H28V18.5H30V10.5C30 9.96957 29.7893 9.46086 29.4142 9.08579C29.0391 8.71071 28.5304 8.5 28 8.5H16L12.59 5.09C12.4039 4.90283 12.1827 4.75434 11.939 4.65308C11.6953 4.55182 11.4339 4.49979 11.17 4.5H4C3.46957 4.5 2.96086 4.71071 2.58579 5.08579C2.21071 5.46086 2 5.96957 2 6.5V26.5C2 27.0304 2.21071 27.5391 2.58579 27.9142C2.96086 28.2893 3.46957 28.5 4 28.5H14V26.5Z" fill="white"/>
</g>
<defs>
<clipPath id="clip0_4_29522">
<rect width="32" height="32" fill="white" transform="translate(0 0.5)"/>
</clipPath>
</defs>
</svg>
