<svg width="32" height="33" viewBox="0 0 32 33" fill="none" xmlns="http://www.w3.org/2000/svg">
<path d="M28.4233 6.04688H3.57642C3.09215 6.04744 2.62789 6.24008 2.28548 6.58253C1.94308 6.92498 1.7505 7.38927 1.75 7.87354V25.1265C1.7505 25.6107 1.94308 26.075 2.28548 26.4175C2.62789 26.7599 3.09215 26.9526 3.57642 26.9531H28.4233C28.9076 26.9526 29.372 26.76 29.7144 26.4175C30.0569 26.0751 30.2495 25.6108 30.25 25.1265V7.87354C30.2495 7.38923 30.0569 6.92491 29.7144 6.58246C29.372 6.24 28.9076 6.04739 28.4233 6.04688ZM3.57642 7.04688H28.4233C28.6425 7.04709 28.8527 7.13425 29.0076 7.28923C29.1626 7.44421 29.2498 7.65436 29.25 7.87354V10.0469H2.75V7.87354C2.7502 7.6544 2.83732 7.44428 2.99225 7.2893C3.14719 7.13432 3.35728 7.04714 3.57642 7.04688ZM29.25 14.0469H2.75V11.0469H29.25V14.0469ZM28.4233 25.9531H3.57642C3.35728 25.9529 3.14719 25.8657 2.99225 25.7107C2.83732 25.5557 2.7502 25.3456 2.75 25.1265V15.0469H29.25V25.1265C29.2498 25.3456 29.1626 25.5558 29.0076 25.7108C28.8527 25.8658 28.6425 25.9529 28.4233 25.9531Z" fill="white"/>
<path d="M7.31763 20.9531H5.49707C5.36446 20.9531 5.23729 21.0058 5.14352 21.0996C5.04975 21.1933 4.99707 21.3205 4.99707 21.4531C4.99707 21.5857 5.04975 21.7129 5.14352 21.8067C5.23729 21.9004 5.36446 21.9531 5.49707 21.9531H7.31763C7.45023 21.9531 7.57741 21.9004 7.67118 21.8067C7.76495 21.7129 7.81763 21.5857 7.81763 21.4531C7.81763 21.3205 7.76495 21.1933 7.67118 21.0996C7.57741 21.0058 7.45023 20.9531 7.31763 20.9531Z" fill="white"/>
<path d="M12.1575 20.9531H10.3369C10.2043 20.9531 10.0771 21.0058 9.98336 21.0996C9.88959 21.1933 9.83691 21.3205 9.83691 21.4531C9.83691 21.5857 9.88959 21.7129 9.98336 21.8067C10.0771 21.9004 10.2043 21.9531 10.3369 21.9531H12.1575C12.2901 21.9531 12.4173 21.9004 12.5111 21.8067C12.6048 21.7129 12.6575 21.5857 12.6575 21.4531C12.6575 21.3205 12.6048 21.1933 12.5111 21.0996C12.4173 21.0058 12.2901 20.9531 12.1575 20.9531Z" fill="white"/>
<path d="M16.9971 20.9531H15.1765C15.0439 20.9531 14.9167 21.0058 14.823 21.0996C14.7292 21.1933 14.6765 21.3205 14.6765 21.4531C14.6765 21.5857 14.7292 21.7129 14.823 21.8067C14.9167 21.9004 15.0439 21.9531 15.1765 21.9531H16.9971C17.1297 21.9531 17.2569 21.9004 17.3506 21.8067C17.4444 21.7129 17.4971 21.5857 17.4971 21.4531C17.4971 21.3205 17.4444 21.1933 17.3506 21.0996C17.2569 21.0058 17.1297 20.9531 16.9971 20.9531Z" fill="white"/>
<path d="M24.8081 18.9532C24.2934 18.9524 23.7912 19.1122 23.3715 19.4102C22.9972 19.1462 22.5575 18.9901 22.1004 18.9589C21.6434 18.9278 21.1866 19.0228 20.7799 19.2336C20.3732 19.4444 20.0322 19.7629 19.7942 20.1543C19.5563 20.5457 19.4304 20.995 19.4304 21.4531C19.4304 21.9112 19.5562 22.3605 19.7942 22.7519C20.0322 23.1434 20.3731 23.4619 20.7798 23.6727C21.1865 23.8835 21.6433 23.9786 22.1003 23.9474C22.5574 23.9163 22.997 23.7602 23.3714 23.4962C23.7911 23.7942 24.2933 23.954 24.8081 23.9532C25.4712 23.9532 26.1071 23.6898 26.5759 23.221C27.0447 22.7521 27.3081 22.1162 27.3081 21.4532C27.3081 20.7902 27.0447 20.1543 26.5759 19.6854C26.1071 19.2166 25.4712 18.9532 24.8081 18.9532ZM20.439 21.4532C20.439 21.1565 20.527 20.8665 20.6918 20.6199C20.8566 20.3732 21.0909 20.1809 21.365 20.0674C21.6391 19.9539 21.9407 19.9242 22.2316 19.982C22.5226 20.0399 22.7899 20.1828 22.9996 20.3925C23.2094 20.6023 23.3523 20.8696 23.4102 21.1606C23.468 21.4515 23.4383 21.7531 23.3248 22.0272C23.2113 22.3013 23.019 22.5356 22.7723 22.7004C22.5257 22.8652 22.2357 22.9532 21.939 22.9532C21.5413 22.9528 21.16 22.7946 20.8788 22.5134C20.5976 22.2322 20.4394 21.8509 20.439 21.4532ZM24.8081 22.9532C24.5471 22.9518 24.2911 22.8816 24.066 22.7496C24.3097 22.3611 24.439 21.9119 24.439 21.4533C24.439 20.9947 24.3097 20.5454 24.066 20.1569C24.2912 20.0249 24.5471 19.9546 24.8081 19.9532C25.206 19.9532 25.5875 20.1112 25.8688 20.3925C26.1501 20.6738 26.3081 21.0554 26.3081 21.4532C26.3081 21.851 26.1501 22.2326 25.8688 22.5139C25.5875 22.7952 25.206 22.9532 24.8081 22.9532Z" fill="white"/>
</svg>
