<svg width="49" height="49" viewBox="0 0 49 49" fill="none" xmlns="http://www.w3.org/2000/svg">
<path d="M24.4933 0C17.8397 0 17.0047 0.0290942 14.3915 0.148021C11.7833 0.267459 10.003 0.680386 8.4453 1.28625C6.83396 1.91202 5.46711 2.7491 4.10536 4.11141C2.74259 5.4732 1.90553 6.84009 1.27774 8.45097C0.670358 10.0093 0.256933 11.7901 0.139541 14.3973C0.0226588 17.0107 -0.00796509 17.8462 -0.00796509 24.5C-0.00796509 31.1538 0.0216387 31.9863 0.140052 34.5996C0.259996 37.2078 0.67291 38.9882 1.27825 40.546C1.90451 42.1574 2.74157 43.5243 4.10383 44.886C5.46507 46.2489 6.83192 47.088 8.44224 47.7138C10.001 48.3196 11.7818 48.7325 14.3894 48.852C17.0027 48.9709 17.8372 49 24.4903 49C31.1444 49 31.9768 48.9709 34.5901 48.852C37.1982 48.7325 38.9806 48.3196 40.5393 47.7138C42.1502 47.088 43.515 46.2489 44.8762 44.886C46.239 43.5243 47.076 42.1574 47.7038 40.5465C48.3061 38.9882 48.7195 37.2073 48.842 34.6001C48.9594 31.9868 48.99 31.1538 48.99 24.5C48.99 17.8462 48.9594 17.0112 48.842 14.3978C48.7195 11.7896 48.3061 10.0093 47.7038 8.45148C47.076 6.84009 46.239 5.4732 44.8762 4.11141C43.5134 2.74859 42.1507 1.91151 40.5378 1.28625C38.976 0.680386 37.1947 0.267459 34.5865 0.148021C31.9733 0.0290942 31.1413 0 24.4857 0H24.4933ZM22.2955 4.4151C22.9478 4.41408 23.6757 4.4151 24.4933 4.4151C31.0346 4.4151 31.8099 4.43858 34.3931 4.55598C36.7818 4.66521 38.0782 5.06435 38.9418 5.3997C40.0851 5.84376 40.9002 6.37459 41.7571 7.23209C42.6146 8.08959 43.1454 8.90626 43.5905 10.0496C43.9258 10.9122 44.3255 12.2087 44.4342 14.5974C44.5516 17.1801 44.5771 17.9559 44.5771 24.4944C44.5771 31.0328 44.5516 31.8087 44.4342 34.3914C44.325 36.7801 43.9258 38.0766 43.5905 38.9392C43.1465 40.0825 42.6146 40.8966 41.7571 41.7536C40.8997 42.6111 40.0856 43.1419 38.9418 43.586C38.0792 43.9229 36.7818 44.321 34.3931 44.4302C31.8104 44.5476 31.0346 44.5732 24.4933 44.5732C17.9515 44.5732 17.1762 44.5476 14.5936 44.4302C12.2049 44.32 10.9085 43.9208 10.0444 43.5855C8.90109 43.1414 8.08445 42.6106 7.22697 41.7531C6.3695 40.8956 5.83868 40.081 5.39361 38.9371C5.05828 38.0745 4.65863 36.7781 4.54992 34.3893C4.43253 31.8066 4.40905 31.0308 4.40905 24.4883C4.40905 17.9457 4.43253 17.174 4.54992 14.5913C4.65914 12.2025 5.05828 10.9061 5.39361 10.0424C5.83766 8.89911 6.3695 8.08245 7.22697 7.22495C8.08445 6.36745 8.90109 5.83661 10.0444 5.39153C10.908 5.05466 12.2049 4.65653 14.5936 4.54679C16.8537 4.44471 17.7295 4.41408 22.2955 4.40898V4.4151ZM37.5708 8.48312C35.9478 8.48312 34.6309 9.79847 34.6309 11.4221C34.6309 13.0452 35.9478 14.3621 37.5708 14.3621C39.1939 14.3621 40.5107 13.0452 40.5107 11.4221C40.5107 9.79898 39.1939 8.4821 37.5708 8.4821V8.48312ZM24.4933 11.9182C17.5452 11.9182 11.9119 17.5517 11.9119 24.5C11.9119 31.4483 17.5452 37.0792 24.4933 37.0792C31.4414 37.0792 37.0727 31.4483 37.0727 24.5C37.0727 17.5517 31.4409 11.9182 24.4928 11.9182H24.4933ZM24.4933 16.3333C29.0032 16.3333 32.6598 19.9894 32.6598 24.5C32.6598 29.01 29.0032 32.6667 24.4933 32.6667C19.9829 32.6667 16.3269 29.01 16.3269 24.5C16.3269 19.9894 19.9829 16.3333 24.4933 16.3333Z" fill="white"/>
</svg>
