<svg width="184" height="156" viewBox="0 0 184 156" fill="none" xmlns="http://www.w3.org/2000/svg">
<ellipse cx="8.83393" cy="9.1597" rx="8.83393" ry="9.1597" transform="matrix(0.968416 -0.247826 0.267944 0.962905 86.9574 28.6934)" fill="#505050"/>
<path d="M95.1105 25.0597C100.687 23.6328 106.411 27.1444 107.974 32.7634C109.538 38.3823 106.399 44.1612 100.823 45.5882C95.2468 47.0151 89.523 43.5043 87.9592 37.8855C86.3956 32.2664 89.5343 26.4867 95.1105 25.0597Z" stroke="white" stroke-opacity="0.05" stroke-width="3"/>
<path d="M99.6276 43.1338L141.29 198.669" stroke="white" stroke-opacity="0.05" stroke-width="4.82567"/>
<ellipse cx="9.1597" cy="8.83393" rx="9.1597" ry="8.83393" transform="matrix(0.267944 0.962905 -0.968416 0.247826 41.1414 133.306)" fill="#505050" stroke="white" stroke-opacity="0.05" stroke-width="4.82567"/>
<path d="M198.651 100.325L43.612 141.552" stroke="white" stroke-opacity="0.05" stroke-width="4.82567"/>
<ellipse cx="9.17739" cy="8.85003" rx="9.17739" ry="8.85003" transform="matrix(-0.501448 0.862336 -0.867475 -0.493239 210.346 162.229)" fill="#505050" stroke="white" stroke-opacity="0.05" stroke-width="4.82567"/>
<ellipse cx="9.17739" cy="8.85003" rx="9.17739" ry="8.85003" transform="matrix(-0.501448 0.862336 -0.867475 -0.493239 56.2086 73.2383)" fill="#505050" stroke="white" stroke-opacity="0.05" stroke-width="4.82567"/>
<path d="M190.156 161.577L51.9433 80.9087" stroke="white" stroke-opacity="0.05" stroke-width="4.82567"/>
<ellipse cx="8.85003" cy="9.17739" rx="8.85003" ry="9.17739" transform="matrix(-0.867475 -0.493239 0.501448 -0.862336 168.569 56.4932)" fill="#505050" stroke="white" stroke-opacity="0.05" stroke-width="4.82567"/>
<path d="M81.0267 191.123L161.372 52.211" stroke="white" stroke-opacity="0.05" stroke-width="4.82567"/>
<circle cx="120.999" cy="121.282" r="8.98897" transform="rotate(75 120.999 121.282)" fill="#505050" stroke="white" stroke-opacity="0.05" stroke-width="4.82567"/>
</svg>
