<svg width="183" height="65" viewBox="0 0 183 65" fill="none" xmlns="http://www.w3.org/2000/svg">
<path d="M39.4551 36.8899C39.6202 37.3047 39.5679 37.8363 39.4873 38.1584C39.3464 38.7302 38.9598 39.3141 37.8162 39.3141C36.745 39.3141 36.0927 38.694 36.0927 37.7597V36.0967H31.49V37.4175C31.49 41.243 34.4981 42.3987 37.7236 42.3987C40.8242 42.3987 43.3772 41.3436 43.784 38.4805C43.9934 36.9987 43.8403 36.0282 43.7679 35.6698C43.043 32.0779 36.5356 31.0067 36.0484 28.9973C35.9807 28.701 35.9752 28.3939 36.0323 28.0953C36.1531 27.5436 36.5276 26.9436 37.5987 26.9436C38.6054 26.9436 39.1893 27.5638 39.1893 28.498V29.5611H43.4699V28.353C43.4699 24.6161 40.1155 24.0322 37.6913 24.0322C34.639 24.0322 32.1464 25.043 31.6913 27.8416C31.5705 28.6067 31.5504 29.2913 31.7316 30.153C32.4766 33.6564 38.5692 34.6712 39.4551 36.8899Z" fill="#636166"/>
<path d="M49.8509 24.5802L46.6697 41.7305H51.3046L53.6522 26.1668H53.7489L56.0321 41.7305H60.6428L57.4818 24.5762L49.8509 24.5802ZM75.7636 24.5802L73.6496 37.6916H73.5489L71.4388 24.5802H64.4442L64.0657 41.7305H68.3583L68.463 26.3117H68.5596L71.4227 41.7305H75.7757L78.6428 26.3158H78.7355L78.8442 41.7305H83.1328L82.7543 24.5762L75.7636 24.5802Z" fill="#636166"/>
<path d="M95.2129 36.8577C95.378 37.2725 95.3257 37.804 95.2451 38.1262C95.1042 38.698 94.7176 39.2819 93.574 39.2819C92.5028 39.2819 91.8505 38.6617 91.8505 37.7275V36.0644H87.2478V37.3852C87.2478 41.2107 90.2559 42.3664 93.4814 42.3664C96.582 42.3664 99.1351 41.3114 99.5418 38.4483C99.7512 36.9664 99.5981 35.996 99.5257 35.6376C98.8008 32.0456 92.2935 30.9745 91.8062 28.9651C91.7385 28.6688 91.7331 28.3616 91.7901 28.0631C91.9109 27.5114 92.2854 26.9114 93.3565 26.9114C94.3632 26.9114 94.9471 27.5315 94.9471 28.4658V29.5289H99.2277V28.3208C99.2277 24.5839 95.8733 24 93.4492 24C90.3968 24 87.9042 25.0107 87.4492 27.8094C87.3283 28.5745 87.3082 29.2591 87.4894 30.1208C88.2344 33.6242 94.327 34.6389 95.2129 36.8577Z" fill="#636166"/>
<path d="M109.612 39.1616C110.804 39.1616 111.171 38.3401 111.255 37.9213C111.291 37.7361 111.296 37.4864 111.296 37.265V24.5804H115.636V36.8744C115.637 37.2506 115.624 37.6267 115.596 38.0019C115.294 41.2032 112.765 42.2421 109.612 42.2421C106.455 42.2421 103.926 41.2032 103.624 38.0019C103.612 37.8327 103.58 37.1884 103.584 36.8744V24.5764H107.925V37.2609C107.921 37.4864 107.929 37.7361 107.965 37.9213C108.046 38.3401 108.416 39.1616 109.612 39.1616ZM130.584 24.5804L130.818 38.0421H130.725L126.779 24.5804H120.416V41.5495H124.632L124.399 27.6207H124.491L128.724 41.5495H134.832V24.5804H130.584ZM145.383 38.9844C146.623 38.9844 147.058 38.1992 147.134 37.7361C147.171 37.5468 147.175 37.3052 147.175 37.0918V34.5952H145.415V32.0985H151.491V36.6972C151.491 37.0193 151.483 37.2529 151.431 37.8247C151.149 40.9495 148.439 42.065 145.399 42.065C142.359 42.065 139.653 40.9495 139.367 37.8247C139.318 37.2529 139.306 37.0193 139.306 36.6972V29.4811C139.306 29.175 139.347 28.6354 139.379 28.3535C139.761 25.1442 142.359 24.1133 145.399 24.1133C148.439 24.1133 151.105 25.1361 151.419 28.3495C151.475 28.8972 151.459 29.477 151.459 29.477V30.0529H147.134V29.0905C147.134 29.0905 147.134 28.6878 147.082 28.4381C147.002 28.0596 146.679 27.1898 145.367 27.1898C144.118 27.1898 143.752 28.0153 143.659 28.4381C143.607 28.6636 143.587 28.9697 143.587 29.2475V37.0878C143.587 37.3052 143.595 37.5468 143.627 37.7401C143.708 38.1992 144.142 38.9844 145.383 38.9844Z" fill="#636166"/>
</svg>
