<svg width="193" height="168" viewBox="0 0 193 168" fill="none" xmlns="http://www.w3.org/2000/svg">
<path d="M88.7549 -76.0009C92.7818 -78.3258 97.9402 -78.5202 103.978 -76.6372C110.018 -74.7537 116.811 -70.8253 123.936 -65.1187C138.179 -53.7104 153.541 -35.3612 166.59 -12.759C179.639 9.84326 187.85 32.3218 190.608 50.3612C191.988 59.3846 191.993 67.2313 190.604 73.4034C189.216 79.574 186.469 83.9449 182.442 86.2698C178.414 88.5954 173.253 88.7883 167.212 86.903C161.17 85.0173 154.373 81.085 147.245 75.3733L144.767 73.3882L145.247 76.5266C146.63 85.5557 146.636 93.4082 145.248 99.5842C143.86 105.758 141.113 110.131 137.085 112.457C133.056 114.783 127.896 114.975 121.855 113.09C115.812 111.204 109.015 107.272 101.887 101.561L99.4091 99.5757L99.8893 102.714C101.272 111.743 101.279 119.595 99.8907 125.771C98.5029 131.946 95.7551 136.318 91.7266 138.644C87.6982 140.97 82.5379 141.163 76.497 139.278C70.4544 137.392 63.6579 133.459 56.5297 127.748L54.0518 125.763L54.532 128.901C55.9144 137.93 55.9208 145.783 54.5326 151.959C53.1448 158.133 50.3977 162.506 46.3694 164.831C42.3425 167.156 37.1845 167.349 31.1464 165.466C25.1069 163.583 18.3135 159.656 11.1886 153.949C-3.05494 142.541 -18.4158 124.19 -31.4652 101.588C-44.5145 78.986 -52.7256 56.5086 -55.4838 38.4692C-56.8635 29.4454 -56.8683 21.598 -55.4795 15.4258C-54.0912 9.25524 -51.3445 4.88556 -47.3176 2.56066C-43.2892 0.234882 -38.129 0.0421399 -32.088 1.92742C-26.0454 3.81323 -19.2485 7.74425 -12.1203 13.4559L-9.642 15.4418L-10.1227 12.3025C-11.505 3.2737 -11.5117 -4.57784 -10.1236 -10.7537C-8.73582 -16.9279 -5.98863 -21.3005 -1.96039 -23.6263C2.06805 -25.9522 7.229 -26.1454 13.2701 -24.2601C19.3126 -22.3742 26.1089 -18.4427 33.2369 -12.7312L35.7152 -10.7453L35.2345 -13.8845C33.8522 -22.9135 33.8463 -30.7653 35.2345 -36.9412C36.6223 -43.1156 39.3693 -47.488 43.3977 -49.8138C47.4261 -52.1396 52.5863 -52.3324 58.6273 -50.4471C64.6699 -48.5613 71.4669 -44.6303 78.595 -38.9187L81.0733 -36.9328L80.5926 -40.072C79.2103 -49.1008 79.2036 -56.9524 80.5917 -63.1282C81.9795 -69.3024 84.7267 -73.675 88.7549 -76.0009Z" fill="#242428" stroke="black" stroke-width="2.47576"/>
</svg>
