<svg width="183" height="65" viewBox="0 0 183 65" fill="none" xmlns="http://www.w3.org/2000/svg">
<mask id="mask0_4_21640" style="mask-type:luminance" maskUnits="userSpaceOnUse" x="31" y="12" width="121" height="42">
<path d="M151.49 12H31.49V54H151.49V12Z" fill="white"/>
</mask>
<g mask="url(#mask0_4_21640)">
<path d="M52.29 12.2C40.79 12.2 31.49 21.5 31.49 33C31.49 44.5 40.79 53.7999 52.29 53.7999C63.79 53.7999 73.09 44.5 73.09 33C73.09 21.5 63.79 12.2 52.29 12.2Z" fill="#636166"/>
<path d="M80.0916 29.1002L81.9916 26.9002C83.2916 28.0002 84.6916 28.6002 86.2916 28.6002C87.5916 28.6002 88.3916 28.1002 88.3916 27.2002C88.3916 26.4002 87.8916 26.0002 85.4916 25.4002C82.5916 24.7002 80.6916 23.9002 80.6916 21.0002C80.6916 18.4002 82.7916 16.7002 85.7916 16.7002C87.8916 16.7002 89.6916 17.4002 91.1916 18.5002L89.4916 20.8002C88.1916 19.9002 86.9916 19.4002 85.6916 19.4002C84.4916 19.4002 83.7916 20.0002 83.7916 20.7002C83.7916 21.6002 84.3916 22.0002 86.8916 22.6002C89.7916 23.4002 91.4916 24.4002 91.4916 26.9002C91.4916 29.8002 89.2916 31.4002 86.1916 31.4002C84.0916 31.4002 81.8916 30.6002 80.0916 29.1002ZM92.5916 25.7002C92.5916 22.5002 94.7916 19.9002 98.0916 19.9002C101.792 19.9002 103.492 22.8002 103.492 25.9002V26.7002H95.7916C96.0916 28.1002 97.0916 28.9002 98.4916 28.9002C99.5916 28.9002 100.292 28.6002 101.192 27.8002L102.992 29.4002C101.992 30.7002 100.492 31.5002 98.4916 31.5002C94.9916 31.4002 92.5916 29.1002 92.5916 25.7002ZM100.392 24.8002C100.192 23.4002 99.3916 22.5002 98.0916 22.5002C96.7916 22.5002 95.9916 23.4002 95.6916 24.8002H100.392ZM104.892 20.2002H107.992V22.4002C108.692 20.9002 109.692 19.9002 111.492 20.0002V23.3002H111.292C109.192 23.3002 107.892 24.6002 107.892 27.2002V31.3002H104.792V20.2002H104.892ZM112.592 20.2002H115.992L118.392 27.6002L120.892 20.2002H124.192L119.792 31.3002H116.992L112.592 20.2002ZM125.392 16.2002H128.692V19.0002H125.392V16.2002ZM125.392 20.2002H128.492V31.2002H125.392V20.2002ZM129.692 25.7002C129.692 22.5002 132.092 19.9002 135.492 19.9002C137.592 19.9002 138.892 20.6002 139.892 21.8002L137.992 23.9002C137.292 23.2002 136.592 22.7002 135.492 22.7002C133.892 22.7002 132.792 24.1002 132.792 25.7002C132.792 27.4002 133.892 28.7002 135.592 28.7002C136.692 28.7002 137.392 28.2002 138.092 27.5002L139.892 29.4002C138.792 30.6002 137.592 31.4002 135.392 31.4002C132.192 31.4002 129.692 28.9002 129.692 25.7002ZM140.692 25.7002C140.692 22.5002 142.892 19.9002 146.192 19.9002C149.892 19.9002 151.592 22.8002 151.592 25.9002V26.7002H143.892C144.192 28.1002 145.192 28.9002 146.592 28.9002C147.692 28.9002 148.392 28.6002 149.292 27.8002L151.092 29.4002C150.092 30.7002 148.592 31.5002 146.592 31.5002C143.092 31.4002 140.692 29.1002 140.692 25.7002ZM148.392 24.8002C148.192 23.4002 147.392 22.5002 146.092 22.5002C144.792 22.5002 143.992 23.4002 143.692 24.8002H148.392ZM80.5916 34.4002H83.4916L90.1916 43.3002V34.4002H93.2916V48.8002H90.5916L83.6916 39.7002V48.8002H80.5916V34.4002ZM95.3916 46.7002L97.2916 44.5002C98.5916 45.6002 99.8916 46.2002 101.592 46.2002C102.892 46.2002 103.692 45.7002 103.692 44.8002C103.692 44.0002 103.192 43.6002 100.792 43.0002C97.8916 42.3002 95.9916 41.5002 95.9916 38.6002C95.9916 36.0002 98.0916 34.3002 100.992 34.3002C103.092 34.3002 104.892 35.0002 106.292 36.1002L104.692 38.5002C103.392 37.6002 102.192 37.1002 100.992 37.1002C99.7916 37.1002 99.1916 37.7002 99.1916 38.4002C99.1916 39.3002 99.7916 39.7002 102.292 40.3002C105.192 41.1002 106.892 42.1002 106.892 44.6002C106.892 47.5002 104.692 49.1002 101.592 49.1002C99.2916 49.0002 97.0916 48.2002 95.3916 46.7002ZM107.492 34.4002H110.892L113.792 44.2002L117.092 34.4002H119.792L122.992 44.2002L125.992 34.4002H129.292L124.392 48.9002H121.592L118.392 39.5002L115.092 48.9002H112.392L107.492 34.4002Z" fill="#636166"/>
<path d="M65.2892 37.5996C65.0892 37.2996 64.6892 36.9996 64.2892 36.9996H62.1892C61.2892 36.9996 59.8892 37.0996 58.0892 37.1996C57.9892 39.2996 57.8892 41.2996 57.5892 43.1996C58.9892 43.6996 60.4892 44.3996 61.9892 45.1996C64.8892 41.4996 65.3892 38.9996 65.4892 38.3996C65.4892 38.0996 65.3892 37.7996 65.2892 37.5996ZM47.3892 34.3996C47.2892 34.1996 47.1892 33.8996 46.9892 33.8996C46.8892 33.8996 46.7892 33.8996 46.6892 33.9996C46.6892 33.9996 46.5892 34.0996 46.3892 34.1996C46.1892 34.3996 45.8892 34.5996 45.4892 34.8996C44.9892 35.3996 43.8892 36.2996 42.6892 37.6996C41.0892 39.4996 38.9892 42.0996 37.6892 45.1996C40.1892 48.0996 43.4892 50.2996 47.3892 51.2996C47.9892 49.0996 48.2892 46.3996 48.2892 43.4996C48.2892 39.5996 47.6892 36.1996 47.4892 34.8996C47.3892 34.6996 47.3892 34.3996 47.3892 34.3996ZM39.6892 28.6996L39.3892 28.0996C39.3892 28.0996 39.3892 27.9996 39.2892 27.9996L38.9892 27.3996C38.2892 26.0996 37.6892 24.9996 37.2892 24.3996C37.0892 24.0996 36.9892 23.8996 36.9892 23.8996C36.7892 23.5996 36.5892 23.5996 36.5892 23.5996C36.4892 23.5996 36.2892 23.6996 36.1892 23.8996C36.1892 23.8996 36.0892 24.0996 35.8892 24.3996L34.9892 25.8996C34.8892 25.9996 34.8892 26.0996 34.7892 26.1996C34.7892 26.1996 34.6892 26.2996 34.6892 26.3996V26.4996C34.4892 26.5996 34.2892 26.9996 33.9892 27.3996C33.4892 29.1996 33.1892 31.0996 33.1892 32.9996C33.1892 37.1996 34.4892 40.9996 36.7892 44.1996C38.0892 41.3996 40.0892 38.5996 42.6892 35.8996C41.7892 33.1996 40.6892 30.6996 39.6892 28.6996Z" fill="#171618"/>
<path d="M56.4869 31.1993C56.4869 30.8993 56.3869 30.5993 56.3869 30.3993V30.1993V30.0993V29.9993V29.8993V29.7993V29.5993V29.4993V29.3993C56.2869 28.8993 56.0869 28.6993 55.6869 28.6993C55.5869 28.6993 55.4869 28.6993 55.2869 28.7993C55.2869 28.7993 55.0869 28.8993 54.7869 28.9993C54.4869 29.0993 53.9869 29.2993 53.4869 29.5993L53.2869 29.6993C52.9869 29.8993 52.5869 29.9993 52.2869 30.1993C50.8869 30.8993 49.5869 31.5993 48.2869 32.3993C48.0869 32.4993 47.8869 32.5993 47.7869 32.6993C48.2869 32.8993 48.6869 33.4993 48.7869 34.0993V34.1993C48.9869 35.2993 49.7869 39.1993 49.7869 43.7993C49.7869 46.7993 49.4869 49.4993 48.7869 51.8993C49.9869 52.0993 51.1869 52.1993 52.3869 52.1993H53.1869C53.2869 52.0993 53.2869 51.9993 53.3869 51.8993C56.1869 46.9993 56.7869 40.5993 56.7869 36.0993C56.7869 34.2993 56.6869 32.6993 56.4869 31.1993ZM57.2869 44.5993C56.6869 47.3993 55.8869 49.8993 54.7869 51.9993C58.3869 51.4993 61.5869 50.0993 64.2869 47.9993C63.4869 47.4993 62.4869 46.9993 61.3869 46.3993C59.9869 45.6993 58.5869 45.0993 57.2869 44.5993ZM41.4869 29.1993C42.1869 30.7993 42.8869 32.3993 43.4869 33.9993C44.9869 32.7993 46.5869 31.7993 48.3869 30.6993C48.3869 30.5993 48.3869 30.4993 48.2869 30.3993C48.2869 30.2993 48.1869 30.0993 48.1869 29.9993C48.1869 29.8993 48.0869 29.6993 48.0869 29.5993C47.6869 27.8993 47.2869 26.5993 47.0869 25.7993V25.6993V25.5993V25.4993C46.9869 25.0993 46.6869 24.8993 46.3869 24.8993H46.2869C46.1869 24.8993 46.0869 24.9993 45.9869 24.9993C45.9869 24.9993 45.2869 25.4993 44.0869 26.2993C43.4869 26.7993 42.4869 27.4993 41.2869 28.4993C41.2869 28.6993 41.3869 28.8993 41.4869 29.1993Z" fill="#171618"/>
</g>
</svg>
