<svg width="183" height="65" viewBox="0 0 183 65" fill="none" xmlns="http://www.w3.org/2000/svg">
<path d="M103.506 35.6301H96.5265L99.3905 31.8588H91.6367L88.8738 35.4901C87.8409 36.9331 87.7409 38.3896 87.7409 39.4004V39.9718C87.7409 40.6322 88.15 40.9914 88.7571 40.9914H103.506C104.1 40.9914 104.502 40.6633 104.502 39.9919V36.633C104.502 35.957 104.1 35.6301 103.506 35.6301ZM63.7766 22.3071C63.6654 21.6756 63.2374 21.3643 62.6804 21.3643H60.7081C58.6556 21.3643 56.8444 22.4527 55.8294 24.0971C55.8294 24.0971 53.9471 27.1069 51.8378 30.4945H65.2287L63.7766 22.3071ZM85.833 22.3639C85.833 21.6922 85.4328 21.3643 84.8335 21.3643H80.8187C80.2239 21.3643 79.8225 21.6922 79.8225 22.3639V29.9732L76.0167 23.1321C75.2562 21.8714 73.9754 21.3921 72.4812 21.3643H69.5137C68.9243 21.3643 68.5219 21.6922 68.5219 22.3639V30.499H73.5096L74.2767 31.8588H68.5219V39.9919C68.5219 40.6633 68.9243 40.9969 69.5137 40.9969H73.5385C74.1365 40.9969 74.5324 40.6633 74.5324 39.9919L74.5301 32.3347L78.3715 39.2313C79.1243 40.4854 80.4095 40.9647 81.8937 40.9969H84.8335C85.4328 40.9969 85.833 40.6633 85.833 39.9919V31.8588H80.881L80.1159 30.499H85.833V22.3639ZM65.4666 31.8588H58.8535C59.0224 32.7838 60.2422 39.6617 60.3145 40.0619C60.4268 40.6812 60.8126 40.9969 61.3784 40.9969H65.9281C66.3449 40.9969 66.5551 40.8658 66.7508 40.6279C66.8842 40.4621 66.9398 40.2108 66.8775 39.8428L65.4666 31.8588ZM46.0508 39.7662C45.8707 40.0741 45.8707 40.3977 45.9808 40.6077C46.1075 40.8534 46.3899 40.9969 46.6946 40.9969H51.4199C52.0157 40.9969 52.5484 40.6756 52.8452 40.1953L58.0596 31.8588H50.9862C48.558 35.7513 46.1119 39.6761 46.0508 39.7662ZM88.8895 26.7189H95.5381L92.6708 30.4945H100.422L103.25 26.7755C104.123 25.6259 104.325 24.5964 104.325 23.6858V22.3906C104.325 21.7267 103.924 21.3643 103.312 21.3643H88.8895C88.2946 21.3643 87.8966 21.6922 87.8966 22.3639V25.7227C87.8966 26.392 88.2946 26.7189 88.8895 26.7189Z" fill="#636166"/>
<path d="M121.913 21.0949C123.27 21.0949 124.816 22.2734 124.816 23.9011C124.816 24.8184 124.523 25.5267 124.093 26.1737C123.817 26.5861 123.607 27.0608 123.52 27.4045C123.427 27.7925 123.222 28.7319 124.371 28.7476C125.118 28.7664 126.957 28.1161 128.442 26.3248C129.585 24.8861 130.265 23.0616 130.265 21.0715C130.265 16.4208 126.53 12.6494 121.913 12.6494C117.294 12.6494 113.553 16.4208 113.553 21.0715C113.553 23.0616 114.231 24.8861 115.375 26.3248C116.863 28.1161 118.7 28.7664 119.447 28.7476C120.595 28.7319 120.387 27.7925 120.298 27.4045C120.214 27.0608 120.002 26.5861 119.725 26.1737C119.295 25.5267 119.002 24.8184 119.002 23.9011C119.005 22.2734 120.548 21.0949 121.913 21.0949ZM136.686 29.607C136.344 29.3235 135.744 28.9099 134.511 28.7197C132.8 28.464 131.273 28.8653 130.354 29.23C129.145 29.7082 127.656 30.7955 126.628 32.2119C125.543 33.7085 124.981 35.9678 125.519 38.3226C125.672 38.9853 125.836 39.3588 126.082 39.8235C126.403 40.455 127.25 41.3368 127.992 41.4958C128.578 41.617 129.036 41.28 129.261 41.0254C130.755 39.2944 136.417 32.5911 137.031 31.7351C137.634 30.8845 137.24 30.0672 136.686 29.607ZM113.468 29.23C112.549 28.8653 111.023 28.464 109.312 28.7197C108.079 28.9099 107.473 29.3235 107.135 29.607C106.582 30.0672 106.185 30.8845 106.791 31.7351C107.401 32.5911 113.062 39.2944 114.557 41.0254C114.781 41.28 115.239 41.617 115.827 41.4958C116.573 41.3368 117.416 40.455 117.737 39.8235C117.986 39.3588 118.147 38.9853 118.304 38.3226C118.841 35.9678 118.27 33.7085 117.195 32.2119C116.166 30.7955 114.675 29.7082 113.468 29.23Z" fill="#636166"/>
</svg>
