<svg width="183" height="65" viewBox="0 0 183 65" fill="none" xmlns="http://www.w3.org/2000/svg">
<mask id="mask0_4_21632" style="mask-type:luminance" maskUnits="userSpaceOnUse" x="31" y="19" width="121" height="27">
<path d="M151.49 19H31.49V45.9388H151.49V19Z" fill="white"/>
</mask>
<g mask="url(#mask0_4_21632)">
<path d="M108.999 37.6448C106.501 37.6448 105.218 35.588 105.218 33.0618C105.218 30.5356 106.479 28.5906 108.999 28.5906C111.565 28.5906 112.78 30.625 112.78 33.0618C112.758 35.6327 111.475 37.6448 108.999 37.6448ZM84.5584 28.5906C86.0209 28.5906 86.6288 29.4402 86.6288 30.1779C86.6288 31.9664 84.8058 32.7488 81.0025 32.8606C81.0025 30.6474 82.2627 28.5906 84.5584 28.5906ZM68.3542 37.6448C65.9911 37.6448 65.0009 35.7222 65.0009 33.0618C65.0009 30.4239 66.0136 28.5906 68.3542 28.5906C70.7398 28.5906 71.8651 30.4909 71.8651 33.0618C71.8651 35.7445 70.6948 37.6448 68.3542 37.6448ZM48.3692 25.975H44.6783L50.7998 40.0145C49.6295 42.6078 48.9994 43.2561 48.1892 43.2561C47.334 43.2561 46.5237 42.5631 45.9386 41.9594L44.3182 44.1056C45.421 45.2681 46.9289 45.9388 48.4818 45.9388C50.4172 45.9388 51.9026 44.821 52.7578 42.809L59.8246 25.9527H56.2012L52.5103 36.0128L48.3692 25.975ZM146.134 28.5906C147.934 28.5906 148.294 29.8202 148.294 32.7041V40.2828H151.49V30.7144C151.49 27.2717 149.127 25.7738 146.944 25.7738C145.009 25.7738 143.231 26.981 142.24 29.2166C141.677 27.0705 139.877 25.7738 137.784 25.7738C135.961 25.7738 134.138 26.9363 133.148 29.1048V25.975H129.952V40.2604H133.148V34.1573C133.148 31.0721 134.768 28.5906 136.974 28.5906C138.774 28.5906 139.112 29.8202 139.112 32.7041V40.2828H142.308L142.285 34.1573C142.285 31.0721 143.928 28.5906 146.134 28.5906ZM120.633 25.975H119.015V40.2604H122.21V34.7832C122.21 31.3181 123.741 28.9707 126.014 28.9707C126.599 28.9707 127.094 28.9931 127.634 29.2166L128.129 25.8409C127.724 25.7962 127.364 25.7514 127.004 25.7514C124.754 25.7514 123.133 27.294 122.187 29.2837V25.975H120.633ZM108.999 25.7514C104.768 25.7514 101.91 28.9707 101.91 33.0395C101.91 37.2647 104.813 40.4169 108.999 40.4169C113.253 40.4169 116.156 37.1753 116.156 33.0395C116.134 28.9483 113.186 25.7514 108.999 25.7514ZM84.7382 37.6448C83.0729 37.6448 81.8351 36.7953 81.3174 35.0738C85.5483 34.895 89.6895 33.8666 89.6895 30.1332C89.6895 27.987 87.5741 25.7738 84.5359 25.7738C80.4397 25.7738 77.6715 29.1048 77.6715 33.0618C77.6715 37.1976 80.3947 40.4392 84.4683 40.4392C87.3037 40.4392 89.1042 39.2991 90.5222 37.6448L88.9695 35.5433C87.3262 37.22 86.3138 37.6448 84.7382 37.6448ZM68.9844 25.7514C67.364 25.7514 65.7436 26.6904 65.1134 28.1659V25.975H61.9176V45.8717H65.1134V38.7625C65.7886 39.7909 67.3414 40.4616 68.7143 40.4616C72.9679 40.4616 75.2184 37.3094 75.2184 33.0618C75.1959 28.8589 72.9904 25.7514 68.9844 25.7514ZM46.5688 20.2519H31.49V23.3594H37.3865V40.2604H40.7398V23.3594H46.5688V20.2519ZM94.0781 25.975H92.1649V28.8366H94.0781V40.2604H97.274V28.8366H100.38V25.975H97.274V23.7394C97.274 22.3087 97.8593 21.8168 99.1871 21.8168C99.6818 21.8168 100.132 21.951 100.74 22.1522L101.46 19.4695C100.875 19.1341 99.7044 19 98.9393 19C95.8786 19 94.0781 20.8332 94.0781 24.0077V25.975Z" fill="#636166"/>
</g>
</svg>
