<svg width="50" height="49" viewBox="0 0 50 49" fill="none" xmlns="http://www.w3.org/2000/svg">
<g clip-path="url(#clip0_4_29649)">
<path d="M36.66 29.3633C36.0537 29.0591 33.0708 27.5932 32.5154 27.389C31.9581 27.1869 31.5538 27.0869 31.1475 27.6953C30.7453 28.3017 29.5816 29.6675 29.2284 30.0718C28.8752 30.4781 28.5199 30.5271 27.9135 30.2249C27.3071 29.9187 25.3512 29.2796 23.0339 27.2134C21.2312 25.6046 20.0123 23.6181 19.6591 23.0097C19.3059 22.4033 19.6223 22.0746 19.9245 21.7724C20.1981 21.5009 20.5329 21.0639 20.8351 20.7107C21.1372 20.3575 21.2393 20.1023 21.4435 19.696C21.6456 19.2918 21.5456 18.9386 21.3924 18.6344C21.2393 18.3302 20.0266 15.3432 19.5223 14.1284C19.0282 12.9463 18.528 13.1076 18.1564 13.0872C17.7687 13.0718 17.3807 13.065 16.9927 13.0667C16.5884 13.0667 15.931 13.2178 15.3757 13.8262C14.8203 14.4326 13.2523 15.9006 13.2523 18.8875C13.2523 21.8724 15.4267 24.7573 15.7289 25.1636C16.031 25.5699 20.0082 31.697 26.0944 34.3246C27.5419 34.9493 28.671 35.323 29.553 35.6006C31.0067 36.0641 32.3297 35.9987 33.3729 35.8415C34.5387 35.668 36.9622 34.3736 37.4685 32.9567C37.9749 31.5397 37.9749 30.3249 37.8217 30.0718C37.6707 29.8186 37.2684 29.6675 36.66 29.3633ZM25.5901 44.4778H25.5819C21.9677 44.4781 18.4199 43.5063 15.3103 41.6644L14.5733 41.2275L6.9354 43.2324L8.97298 35.7844L8.49319 35.0208C6.47284 31.8037 5.40403 28.0805 5.41028 24.2816C5.41232 13.1545 14.4671 4.10178 25.5983 4.10178C30.9883 4.10178 36.0557 6.2047 39.8654 10.0185C41.7456 11.8896 43.2358 14.1152 44.2497 16.5663C45.2636 19.0175 45.781 21.6454 45.772 24.2979C45.7659 35.425 36.7131 44.4778 25.5901 44.4778ZM42.7667 7.12141C40.5168 4.8575 37.8402 3.06238 34.8918 1.84C31.9434 0.617608 28.7818 -0.00776902 25.5901 7.28446e-05C12.207 7.28446e-05 1.31469 10.8924 1.30857 24.2796C1.30857 28.5589 2.42536 32.7362 4.55073 36.4173L1.1044 49.0001L13.9771 45.6232C17.5375 47.5611 21.5262 48.5774 25.5799 48.5795H25.5901C38.9712 48.5795 49.8655 37.6872 49.8717 24.2979C49.8816 21.1074 49.2588 17.9465 48.0393 14.9982C46.8197 12.0498 45.0276 9.37262 42.7667 7.12141Z" fill="white"/>
</g>
<defs>
<clipPath id="clip0_4_29649">
<rect width="49" height="49" fill="white" transform="translate(0.988037)"/>
</clipPath>
</defs>
</svg>
